<mxfile host="app.diagrams.net" modified="2023-07-27T13:29:22.946Z" agent="Mozilla/5.0 (Windows NT 10.0; Win64; x64) AppleWebKit/537.36 (KHTML, like Gecko) Chrome/114.0.0.0 Safari/537.36" etag="yqhSkIn3nFVc25p_IGAv" version="21.6.5" type="github">
  <diagram id="R2lEEEUBdFMjLlhIrx00" name="Page-1">
    <mxGraphModel dx="2401" dy="1996" grid="1" gridSize="10" guides="1" tooltips="1" connect="1" arrows="1" fold="1" page="1" pageScale="1" pageWidth="850" pageHeight="1100" math="0" shadow="0" extFonts="Permanent Marker^https://fonts.googleapis.com/css?family=Permanent+Marker">
      <root>
        <mxCell id="0" />
        <mxCell id="1" parent="0" />
        <mxCell id="drUav4MFLmWyANLGxn5H-34" value="&lt;h3 style=&quot;border-color: var(--border-color);&quot;&gt;&lt;font style=&quot;border-color: var(--border-color); font-size: 18px;&quot; face=&quot;Georgia&quot;&gt;goodsownersetup&lt;/font&gt;&lt;/h3&gt;" style="whiteSpace=wrap;html=1;align=center;" vertex="1" parent="1">
          <mxGeometry x="-350" y="-650" width="180" height="50" as="geometry" />
        </mxCell>
        <mxCell id="drUav4MFLmWyANLGxn5H-35" value="Outer Transporter" style="ellipse;whiteSpace=wrap;html=1;align=center;" vertex="1" parent="1">
          <mxGeometry x="-110" y="-650" width="100" height="40" as="geometry" />
        </mxCell>
        <mxCell id="drUav4MFLmWyANLGxn5H-36" value="Final Transportation Price" style="ellipse;whiteSpace=wrap;html=1;align=center;" vertex="1" parent="1">
          <mxGeometry x="-120" y="-520" width="100" height="40" as="geometry" />
        </mxCell>
        <mxCell id="drUav4MFLmWyANLGxn5H-37" value="Transportation Cost" style="ellipse;whiteSpace=wrap;html=1;align=center;" vertex="1" parent="1">
          <mxGeometry x="-110" y="-780" width="100" height="40" as="geometry" />
        </mxCell>
        <mxCell id="drUav4MFLmWyANLGxn5H-39" value="Profit Contribution %" style="ellipse;whiteSpace=wrap;html=1;align=center;" vertex="1" parent="1">
          <mxGeometry x="-320" y="-520" width="100" height="40" as="geometry" />
        </mxCell>
        <mxCell id="drUav4MFLmWyANLGxn5H-42" value="Profit Contribution Amount" style="ellipse;whiteSpace=wrap;html=1;align=center;" vertex="1" parent="1">
          <mxGeometry x="-520" y="-520" width="100" height="40" as="geometry" />
        </mxCell>
        <mxCell id="drUav4MFLmWyANLGxn5H-43" value="Transfer Price - Value" style="ellipse;whiteSpace=wrap;html=1;align=center;dashed=1;" vertex="1" parent="1">
          <mxGeometry x="-512.5" y="-780" width="100" height="40" as="geometry" />
        </mxCell>
        <mxCell id="drUav4MFLmWyANLGxn5H-44" value="Transfer Price - %" style="ellipse;whiteSpace=wrap;html=1;align=center;dashed=1;" vertex="1" parent="1">
          <mxGeometry x="-512.5" y="-650" width="100" height="40" as="geometry" />
        </mxCell>
        <mxCell id="drUav4MFLmWyANLGxn5H-45" value="route_code" style="ellipse;whiteSpace=wrap;html=1;align=center;" vertex="1" parent="1">
          <mxGeometry x="-310" y="-770" width="100" height="40" as="geometry" />
        </mxCell>
        <mxCell id="drUav4MFLmWyANLGxn5H-51" value="" style="endArrow=classic;html=1;rounded=0;" edge="1" parent="1" source="drUav4MFLmWyANLGxn5H-34" target="drUav4MFLmWyANLGxn5H-45">
          <mxGeometry width="50" height="50" relative="1" as="geometry">
            <mxPoint x="-220" y="-800" as="sourcePoint" />
            <mxPoint x="-170" y="-850" as="targetPoint" />
          </mxGeometry>
        </mxCell>
        <mxCell id="drUav4MFLmWyANLGxn5H-52" value="" style="endArrow=classic;html=1;rounded=0;exitX=0.75;exitY=0;exitDx=0;exitDy=0;" edge="1" parent="1" source="drUav4MFLmWyANLGxn5H-34" target="drUav4MFLmWyANLGxn5H-37">
          <mxGeometry width="50" height="50" relative="1" as="geometry">
            <mxPoint x="-300" y="-660" as="sourcePoint" />
            <mxPoint x="-170" y="-850" as="targetPoint" />
          </mxGeometry>
        </mxCell>
        <mxCell id="drUav4MFLmWyANLGxn5H-53" value="" style="endArrow=classic;html=1;rounded=0;exitX=0.25;exitY=0;exitDx=0;exitDy=0;" edge="1" parent="1" source="drUav4MFLmWyANLGxn5H-34" target="drUav4MFLmWyANLGxn5H-43">
          <mxGeometry width="50" height="50" relative="1" as="geometry">
            <mxPoint x="-220" y="-800" as="sourcePoint" />
            <mxPoint x="-170" y="-850" as="targetPoint" />
          </mxGeometry>
        </mxCell>
        <mxCell id="drUav4MFLmWyANLGxn5H-54" value="" style="endArrow=classic;html=1;rounded=0;" edge="1" parent="1" source="drUav4MFLmWyANLGxn5H-34" target="drUav4MFLmWyANLGxn5H-44">
          <mxGeometry width="50" height="50" relative="1" as="geometry">
            <mxPoint x="-260" y="-540" as="sourcePoint" />
            <mxPoint x="-210" y="-590" as="targetPoint" />
          </mxGeometry>
        </mxCell>
        <mxCell id="drUav4MFLmWyANLGxn5H-55" value="" style="endArrow=classic;html=1;rounded=0;" edge="1" parent="1" source="drUav4MFLmWyANLGxn5H-34" target="drUav4MFLmWyANLGxn5H-35">
          <mxGeometry width="50" height="50" relative="1" as="geometry">
            <mxPoint x="-220" y="-800" as="sourcePoint" />
            <mxPoint x="-170" y="-850" as="targetPoint" />
          </mxGeometry>
        </mxCell>
        <mxCell id="drUav4MFLmWyANLGxn5H-56" value="" style="endArrow=classic;html=1;rounded=0;entryX=0;entryY=0;entryDx=0;entryDy=0;" edge="1" parent="1" source="drUav4MFLmWyANLGxn5H-34" target="drUav4MFLmWyANLGxn5H-36">
          <mxGeometry width="50" height="50" relative="1" as="geometry">
            <mxPoint x="-220" y="-800" as="sourcePoint" />
            <mxPoint x="-170" y="-850" as="targetPoint" />
          </mxGeometry>
        </mxCell>
        <mxCell id="drUav4MFLmWyANLGxn5H-57" value="" style="endArrow=classic;html=1;rounded=0;" edge="1" parent="1" source="drUav4MFLmWyANLGxn5H-34" target="drUav4MFLmWyANLGxn5H-39">
          <mxGeometry width="50" height="50" relative="1" as="geometry">
            <mxPoint x="-220" y="-800" as="sourcePoint" />
            <mxPoint x="-170" y="-850" as="targetPoint" />
          </mxGeometry>
        </mxCell>
        <mxCell id="drUav4MFLmWyANLGxn5H-58" value="" style="endArrow=classic;html=1;rounded=0;exitX=0.12;exitY=1.139;exitDx=0;exitDy=0;exitPerimeter=0;entryX=1;entryY=0;entryDx=0;entryDy=0;" edge="1" parent="1" source="drUav4MFLmWyANLGxn5H-34" target="drUav4MFLmWyANLGxn5H-42">
          <mxGeometry width="50" height="50" relative="1" as="geometry">
            <mxPoint x="-220" y="-800" as="sourcePoint" />
            <mxPoint x="-170" y="-850" as="targetPoint" />
          </mxGeometry>
        </mxCell>
        <mxCell id="drUav4MFLmWyANLGxn5H-59" value="&lt;h3 style=&quot;border-color: var(--border-color);&quot;&gt;&lt;font style=&quot;border-color: var(--border-color); font-size: 24px;&quot; face=&quot;Georgia&quot;&gt;routes&lt;/font&gt;&lt;/h3&gt;" style="whiteSpace=wrap;html=1;align=center;" vertex="1" parent="1">
          <mxGeometry x="-684.5" y="-1000" width="100" height="40" as="geometry" />
        </mxCell>
        <mxCell id="drUav4MFLmWyANLGxn5H-60" value="special case" style="ellipse;whiteSpace=wrap;html=1;align=center;" vertex="1" parent="1">
          <mxGeometry x="-584.5" y="-1080" width="100" height="40" as="geometry" />
        </mxCell>
        <mxCell id="drUav4MFLmWyANLGxn5H-61" value="discharge point" style="ellipse;whiteSpace=wrap;html=1;align=center;" vertex="1" parent="1">
          <mxGeometry x="-524.5" y="-930" width="100" height="40" as="geometry" />
        </mxCell>
        <mxCell id="drUav4MFLmWyANLGxn5H-62" value="dispatch point" style="ellipse;whiteSpace=wrap;html=1;align=center;" vertex="1" parent="1">
          <mxGeometry x="-689.5" y="-870" width="100" height="40" as="geometry" />
        </mxCell>
        <mxCell id="drUav4MFLmWyANLGxn5H-63" value="goods_owner_id" style="ellipse;whiteSpace=wrap;html=1;align=center;" vertex="1" parent="1">
          <mxGeometry x="-847" y="-930" width="100" height="40" as="geometry" />
        </mxCell>
        <mxCell id="drUav4MFLmWyANLGxn5H-64" value="&lt;u style=&quot;border-color: var(--border-color);&quot;&gt;code&lt;/u&gt;" style="ellipse;whiteSpace=wrap;html=1;align=center;fontStyle=4;" vertex="1" parent="1">
          <mxGeometry x="-789.5" y="-1080" width="100" height="40" as="geometry" />
        </mxCell>
        <mxCell id="drUav4MFLmWyANLGxn5H-66" value="" style="endArrow=classic;html=1;rounded=0;" edge="1" parent="1" source="drUav4MFLmWyANLGxn5H-59" target="drUav4MFLmWyANLGxn5H-62">
          <mxGeometry width="50" height="50" relative="1" as="geometry">
            <mxPoint x="-614.5" y="-790" as="sourcePoint" />
            <mxPoint x="-564.5" y="-840" as="targetPoint" />
          </mxGeometry>
        </mxCell>
        <mxCell id="drUav4MFLmWyANLGxn5H-67" value="" style="endArrow=classic;html=1;rounded=0;" edge="1" parent="1" source="drUav4MFLmWyANLGxn5H-59" target="drUav4MFLmWyANLGxn5H-61">
          <mxGeometry width="50" height="50" relative="1" as="geometry">
            <mxPoint x="-614.5" y="-790" as="sourcePoint" />
            <mxPoint x="-564.5" y="-840" as="targetPoint" />
          </mxGeometry>
        </mxCell>
        <mxCell id="drUav4MFLmWyANLGxn5H-68" value="" style="endArrow=classic;html=1;rounded=0;" edge="1" parent="1" source="drUav4MFLmWyANLGxn5H-59" target="drUav4MFLmWyANLGxn5H-60">
          <mxGeometry width="50" height="50" relative="1" as="geometry">
            <mxPoint x="-614.5" y="-790" as="sourcePoint" />
            <mxPoint x="-564.5" y="-840" as="targetPoint" />
          </mxGeometry>
        </mxCell>
        <mxCell id="drUav4MFLmWyANLGxn5H-69" value="" style="endArrow=classic;html=1;rounded=0;" edge="1" parent="1" source="drUav4MFLmWyANLGxn5H-59" target="drUav4MFLmWyANLGxn5H-64">
          <mxGeometry width="50" height="50" relative="1" as="geometry">
            <mxPoint x="-614.5" y="-790" as="sourcePoint" />
            <mxPoint x="-564.5" y="-840" as="targetPoint" />
          </mxGeometry>
        </mxCell>
        <mxCell id="drUav4MFLmWyANLGxn5H-70" value="" style="endArrow=classic;html=1;rounded=0;" edge="1" parent="1" source="drUav4MFLmWyANLGxn5H-59" target="drUav4MFLmWyANLGxn5H-63">
          <mxGeometry width="50" height="50" relative="1" as="geometry">
            <mxPoint x="-614.5" y="-790" as="sourcePoint" />
            <mxPoint x="-564.5" y="-840" as="targetPoint" />
          </mxGeometry>
        </mxCell>
      </root>
    </mxGraphModel>
  </diagram>
</mxfile>
